<svg id="Capa_1" enable-background="new 0 0 512 512" height="512" viewBox="0 0 512 512" width="512" xmlns="http://www.w3.org/2000/svg"><g><path d="m181 421h-15c-41.421 0-75-34.579-75-76v-75l23.684-15h66.316z" fill="#47568c"/><path d="m151 270h-60v-75c0-8.284 6.716-15 15-15h15c16.569 0 30 13.431 30 30l15 30z" fill="#29376d"/><path d="m421 150-33.75 30-33.25-30-30.5-30 30.5-26.25c0-18.64 14.61-33.75 33.25-33.75 18.64 0 33.75 15.11 33.75 33.75z" fill="#17224d"/><path d="m219 120-34.25 30-33.75-30v-56.25c0-18.64 15.11-33.75 33.75-33.75 18.64 0 34.25 15.11 34.25 33.75l29.5 26.25z" fill="#29376d"/><path d="m354 120-34.25 30-33.75-30-30-34.737 30-21.513c0-18.64 15.11-33.75 33.75-33.75 18.64 0 34.25 15.11 34.25 33.75z" fill="#29376d"/><path d="m286 90-33.75 30-33.25-30v-56.25c0-18.64 14.61-33.75 33.25-33.75 18.64 0 33.75 15.11 33.75 33.75z" fill="#47568c"/><path d="m421 240-37.974 15h-29.026l-30.5-67.5 30.5-37.5h67z" fill="#29376d"/><path d="m354 255h-68l-30-75 30-60h68z" fill="#47568c"/><path d="m219 255h-38.474l-29.526-15v-120h68l29.5 67.5z" fill="#47568c"/><path d="m219 90h67v165h-67z" fill="#61729b"/><path d="m376 421h-90-90c-8.291 0-15 6.709-15 15v61c0 8.291 6.709 15 15 15h90 90c8.291 0 15-6.709 15-15v-61c0-8.291-6.709-15-15-15z" fill="#d5e8fe"/><path d="m391 497v-61c0-8.291-6.709-15-15-15h-90v91h90c8.291 0 15-6.709 15-15z" fill="#b5dbff"/><path d="m286 240h-135v166c0 24.853 20.147 45 45 45h15l30-15h45 45l30 15h15c24.853 0 45-20.147 45-45v-166z" fill="#edf5ff"/><path d="m361 451h15c24.853 0 45-20.147 45-45v-166h-135v196h45z" fill="#d5e8fe"/><path d="m346 300h-60-60c-8.291 0-15 6.709-15 15v136h75 75v-136c0-8.291-6.709-15-15-15z" fill="#61729b"/><path d="m361 315c0-8.291-6.709-15-15-15h-60v151h75z" fill="#47568c"/></g></svg>